<svg width="16" height="16" viewBox="0 0 16 16" fill="none" xmlns="http://www.w3.org/2000/svg">
<g clip-path="url(#clip0_4088_3545)">
<path fill-rule="evenodd" clip-rule="evenodd" d="M5.1467 2.38839C6.3807 2.29854 7.42201 2.26852 7.99998 2.26852C8.5767 2.26852 9.61481 2.29841 10.8454 2.38782V1.04586C10.8454 0.572477 11.2291 0.188721 11.7024 0.188721C12.1759 0.188721 12.5596 0.572476 12.5596 1.04586V2.55548C14.1779 2.86053 15.4199 4.19263 15.5626 5.87086C15.6784 7.23391 15.7142 8.47455 15.7142 9.04137C15.7142 9.60812 15.6784 10.8474 15.5627 12.2094C15.4108 13.9956 14.0133 15.3898 12.2424 15.5707C10.4255 15.7562 8.78514 15.8115 7.99996 15.8115C7.2148 15.8115 5.57441 15.7562 3.7575 15.5707C1.9866 15.3898 0.589166 13.9956 0.437242 12.2094C0.321406 10.8474 0.285645 9.60813 0.285645 9.04137C0.285645 8.47453 0.321418 7.23389 0.437306 5.87085C0.579759 4.19536 1.818 2.86486 3.43241 2.55697V1.04586C3.43241 0.572477 3.81616 0.188721 4.28955 0.188721C4.76294 0.188721 5.1467 0.572476 5.1467 1.04586V2.38839ZM3.99993 6.38794C3.60544 6.38794 3.28564 6.70774 3.28564 7.10223C3.28564 7.49671 3.60544 7.81652 3.99993 7.81652H4.57136C4.96585 7.81652 5.28564 7.49671 5.28564 7.10223C5.28564 6.70774 4.96585 6.38794 4.57136 6.38794H3.99993ZM3.28564 10.5308C3.28564 10.1363 3.60544 9.81652 3.99993 9.81652H4.57136C4.96585 9.81652 5.28564 10.1363 5.28564 10.5308C5.28564 10.9253 4.96585 11.2451 4.57136 11.2451H3.99993C3.60544 11.2451 3.28564 10.9253 3.28564 10.5308ZM7.71422 6.38794C7.31973 6.38794 6.99993 6.70774 6.99993 7.10223C6.99993 7.49671 7.31973 7.81652 7.71422 7.81652H8.28564C8.68014 7.81652 8.99993 7.49671 8.99993 7.10223C8.99993 6.70774 8.68014 6.38794 8.28564 6.38794H7.71422ZM10.7142 7.10223C10.7142 6.70774 11.034 6.38794 11.4285 6.38794H11.9999C12.3944 6.38794 12.7142 6.70774 12.7142 7.10223C12.7142 7.49671 12.3944 7.81652 11.9999 7.81652H11.4285C11.034 7.81652 10.7142 7.49671 10.7142 7.10223ZM7.71422 9.81652C7.31973 9.81652 6.99993 10.1363 6.99993 10.5308C6.99993 10.9253 7.31973 11.2451 7.71422 11.2451H8.28564C8.68014 11.2451 8.99993 10.9253 8.99993 10.5308C8.99993 10.1363 8.68014 9.81652 8.28564 9.81652H7.71422Z" fill="#071013"/>
</g>
<defs>
<clipPath id="clip0_4088_3545">
<rect width="16" height="16" fill="white"/>
</clipPath>
</defs>
</svg>
