<svg width="16" height="16" viewBox="0 0 16 16" fill="none" xmlns="http://www.w3.org/2000/svg">
<path d="M13.6062 4.08878C14.0971 3.64349 14.1339 2.8846 13.6887 2.39375C13.2434 1.90289 12.4845 1.86593 11.9937 2.31121C10.3987 3.75812 9.2005 5.05847 8.18913 6.63706C7.45257 7.78671 6.83251 9.0568 6.22537 10.5961L4.06147 8.36459C3.60009 7.88881 2.84039 7.87712 2.36462 8.33848C1.88885 8.79985 1.87716 9.55955 2.33851 10.0353L5.82939 13.6353C6.11923 13.9343 6.5433 14.0616 6.94984 13.9717C7.35636 13.8818 7.68729 13.5876 7.82416 13.1944C8.63102 10.8767 9.3473 9.27819 10.2099 7.93176C11.0678 6.59275 12.1029 5.45248 13.6062 4.08878Z" fill="#0097E0"/>
</svg>
