<svg width="44" height="44" viewBox="0 0 44 44" fill="none" xmlns="http://www.w3.org/2000/svg">
<rect x="10" y="10" width="24" height="24" rx="12" fill="#EFF3F8"/>
<path d="M19.8792 18.4649L22.0002 20.5869L24.1212 18.4649C24.3088 18.2773 24.5633 18.1719 24.8287 18.1719C25.0941 18.1719 25.3486 18.2773 25.5362 18.4649C25.7238 18.6526 25.8293 18.9071 25.8293 19.1724C25.8293 19.4378 25.7238 19.6923 25.5362 19.8799L23.4142 21.9999L25.5362 24.1219C25.7238 24.3096 25.8293 24.5641 25.8293 24.8294C25.8293 25.0948 25.7238 25.3493 25.5362 25.5369C25.3486 25.7246 25.0941 25.83 24.8287 25.83C24.5633 25.83 24.3088 25.7246 24.1212 25.5369L22.0002 23.4149L19.8792 25.5369C19.6916 25.7246 19.4371 25.83 19.1717 25.83C18.9063 25.83 18.6518 25.7246 18.4642 25.5369C18.2766 25.3493 18.1711 25.0948 18.1711 24.8294C18.1711 24.5641 18.2766 24.3096 18.4642 24.1219L20.5862 22.0009L18.4652 19.8799C18.2776 19.6924 18.1721 19.4381 18.172 19.1728C18.1719 18.9075 18.2772 18.6531 18.4647 18.4654C18.6522 18.2778 18.9066 18.1723 19.1718 18.1722C19.4371 18.1721 19.6916 18.2774 19.8792 18.4649Z" fill="#7E8EA0"/>
</svg>
