<svg width="15" height="15" viewBox="0 0 15 15" fill="none" xmlns="http://www.w3.org/2000/svg">
<path d="M10.3959 3.34982C10.5992 3.34985 10.7954 3.42449 10.9473 3.55958C11.0993 3.69468 11.1963 3.88083 11.2201 4.08274L11.2259 4.17985V12.1656L12.7432 10.6483C12.8922 10.4978 13.0931 10.41 13.3048 10.4028C13.5164 10.3957 13.7228 10.4696 13.8817 10.6096C14.0405 10.7496 14.1399 10.9451 14.1594 11.1559C14.1789 11.3668 14.1171 11.5771 13.9866 11.7439L13.9169 11.8219L10.9827 14.7569C10.8398 14.8998 10.6496 14.9857 10.4479 14.9984C10.2462 15.011 10.0468 14.9497 9.88707 14.8258L9.80905 14.7569L6.87406 11.8219C6.7252 11.6726 6.63877 11.4721 6.63234 11.2613C6.6259 11.0506 6.69994 10.8452 6.83941 10.6871C6.97888 10.5289 7.17333 10.4297 7.38327 10.4097C7.5932 10.3897 7.80288 10.4504 7.9697 10.5794L8.04856 10.6483L9.56585 12.1647V4.17985C9.56585 3.95971 9.6533 3.74859 9.80896 3.59293C9.96462 3.43727 10.1757 3.34982 10.3959 3.34982ZM4.34247 0.243021L7.27663 3.17801C7.35591 3.25457 7.41914 3.34616 7.46264 3.44743C7.50614 3.5487 7.52904 3.65761 7.53 3.76782C7.53095 3.87803 7.50995 3.98733 7.46822 4.08934C7.42648 4.19135 7.36485 4.28402 7.28692 4.36196C7.20898 4.43989 7.11631 4.50152 7.0143 4.54326C6.91229 4.58499 6.803 4.60599 6.69279 4.60503C6.58257 4.60408 6.47366 4.58118 6.37239 4.53768C6.27112 4.49418 6.17953 4.43094 6.10297 4.35167L4.58567 2.83437V10.8193C4.58567 11.0394 4.49822 11.2505 4.34256 11.4062C4.1869 11.5618 3.97578 11.6493 3.75564 11.6493C3.53551 11.6493 3.32439 11.5618 3.16873 11.4062C3.01306 11.2505 2.92561 11.0394 2.92561 10.8193V2.8352L1.40666 4.35167C1.25012 4.50286 1.04045 4.58653 0.822817 4.58463C0.605186 4.58274 0.397004 4.49545 0.24311 4.34156C0.0892158 4.18766 0.00192253 3.97948 3.13773e-05 3.76185C-0.00185978 3.54422 0.0818024 3.33455 0.232999 3.17801L3.16798 0.243021C3.32364 0.0874148 3.53472 0 3.75481 0C3.97491 0 4.18682 0.0874148 4.34247 0.243021Z" fill="#071013"/>
</svg>
